<svg xmlns="http://www.w3.org/2000/svg" viewBox="0 0 320 320" role="img" aria-labelledby="title desc">
  <title id="title">Cute heart</title>
  <desc id="desc">A smiling pink heart with small sparkles.</desc>
  <defs>
    <linearGradient id="heartGradient" x1="80" y1="58" x2="242" y2="276" gradientUnits="userSpaceOnUse">
      <stop offset="0" stop-color="#ff86b7"/>
      <stop offset="0.55" stop-color="#ff4d8d"/>
      <stop offset="1" stop-color="#f82f73"/>
    </linearGradient>
    <filter id="softShadow" x="-20%" y="-20%" width="140%" height="145%">
      <feDropShadow dx="0" dy="16" stdDeviation="14" flood-color="#e52d69" flood-opacity="0.28"/>
    </filter>
  </defs>
  <rect width="320" height="320" rx="64" fill="#fff1f8"/>
  <g filter="url(#softShadow)">
    <path
      d="M160 263C87 207 54 169 54 117c0-35 25-61 58-61 21 0 39 10 48 27 9-17 27-27 48-27 33 0 58 26 58 61 0 52-33 90-106 146Z"
      fill="url(#heartGradient)"
    />
  </g>
  <ellipse cx="126" cy="133" rx="10" ry="14" fill="#552738"/>
  <ellipse cx="194" cy="133" rx="10" ry="14" fill="#552738"/>
  <circle cx="122" cy="128" r="3.5" fill="#fff"/>
  <circle cx="190" cy="128" r="3.5" fill="#fff"/>
  <path d="M137 171c12 14 34 14 46 0" fill="none" stroke="#552738" stroke-width="8" stroke-linecap="round"/>
  <circle cx="97" cy="157" r="12" fill="#ffb2c9" opacity="0.82"/>
  <circle cx="223" cy="157" r="12" fill="#ffb2c9" opacity="0.82"/>
  <path d="M64 69l8 18 18 8-18 8-8 18-8-18-18-8 18-8 8-18Z" fill="#ffd36a"/>
  <path d="M256 196l6 14 14 6-14 6-6 14-6-14-14-6 14-6 6-14Z" fill="#8ee8cd"/>
  <path d="M239 72l5 11 11 5-11 5-5 11-5-11-11-5 11-5 5-11Z" fill="#ffb199"/>
</svg>
